<?xml version="1.0" encoding="UTF-8" standalone="no"?>
<svg
   xmlns:dc="http://purl.org/dc/elements/1.1/"
   xmlns:cc="http://creativecommons.org/ns#"
   xmlns:rdf="http://www.w3.org/1999/02/22-rdf-syntax-ns#"
   xmlns:svg="http://www.w3.org/2000/svg"
   xmlns="http://www.w3.org/2000/svg"
   width="800"
   height="400"
   overflow="hidden"
   version="1.1"
   id="svg3912">
  <metadata
     id="metadata61">
    <rdf:RDF>
      <cc:Work
         rdf:about="">
        <dc:format>image/svg+xml</dc:format>
        <dc:type
           rdf:resource="http://purl.org/dc/dcmitype/StillImage" />
        <dc:title></dc:title>
      </cc:Work>
    </rdf:RDF>
  </metadata>
  <defs
     id="defs59" />
  <g
     clip-path="url(#clip0)"
     id="g3910"
     transform="translate(-244.16666,-138.83332)">
    <path
       d="m 275.21698,368.4717 c 0,-8.56 6.94,-15.5 15.5,-15.5 8.56,0 15.5,6.94 15.5,15.5 0,8.56 -6.94,15.5 -15.5,15.5 -8.56,0 -15.5,-6.94 -15.5,-15.5 z"
       id="path3804"
       style="fill:#b4c7e7;fill-rule:evenodd;stroke:#000000;stroke-width:2.66667008;stroke-miterlimit:8" />
    <path
       d="m 601.21698,368.4717 c 0,-8.56 6.94,-15.5 15.5,-15.5 8.56,0 15.5,6.94 15.5,15.5 0,8.56 -6.94,15.5 -15.5,15.5 -8.56,0 -15.5,-6.94 -15.5,-15.5 z"
       id="path3806"
       style="fill:#b4c7e7;fill-rule:evenodd;stroke:#000000;stroke-width:2.66667008;stroke-miterlimit:8" />
    <path
       d="m 857.21698,368.4717 c 0,-8.56 6.94,-15.5 15.5,-15.5 8.56,0 15.5,6.94 15.5,15.5 0,8.56 -6.94,15.5 -15.5,15.5 -8.56,0 -15.5,-6.94 -15.5,-15.5 z"
       id="path3808"
       style="fill:#b4c7e7;fill-rule:evenodd;stroke:#000000;stroke-width:2.66667008;stroke-miterlimit:8" />
    <path
       d="m 306.21698,367.9717 295,-1.1e-4"
       id="path3810"
       style="fill:none;fill-rule:evenodd;stroke:#000000;stroke-width:2.66667008;stroke-miterlimit:8" />
    <path
       d="m 632.21698,367.9717 225,-1.1e-4"
       id="path3812"
       style="fill:none;fill-rule:evenodd;stroke:#000000;stroke-width:2.66667008;stroke-miterlimit:8" />
    <rect
       x="275.21698"
       y="167.97169"
       width="73"
       height="31"
       id="rect3814"
       style="fill:#b4c7e7;stroke:#000000;stroke-width:2.66667008;stroke-miterlimit:8" />
    <text
       font-weight="400"
       font-size="19"
       id="text3816"
       style="font-weight:400;font-size:19px;font-family:Calibri, sans-serif"
       x="292.42499"
       y="188.47169">main</text>
    <path
       d="m 368.21698,435.4717 c 0,-8.56 6.94,-15.5 15.5,-15.5 8.56,0 15.5,6.94 15.5,15.5 0,8.56 -6.94,15.5 -15.5,15.5 -8.56,0 -15.5,-6.94 -15.5,-15.5 z"
       id="path3818"
       style="fill:#c5e0b4;fill-rule:evenodd;stroke:#000000;stroke-width:2.66667008;stroke-miterlimit:8" />
    <path
       d="m 306.21698,368.9717 c 15.5,0 31,16.75 31,33.5 0,16.75 15.5,33.5 31,33.5"
       id="path3820"
       style="fill:none;fill-rule:evenodd;stroke:#000000;stroke-width:2.66667008;stroke-miterlimit:8" />
    <rect
       x="368.21698"
       y="167.97169"
       width="73"
       height="31"
       id="rect3822"
       style="fill:#c5e0b4;stroke:#000000;stroke-width:2.66667008;stroke-miterlimit:8" />
    <text
       font-weight="400"
       font-size="19"
       id="text3824"
       style="font-weight:400;font-size:19px;font-family:Calibri, sans-serif"
       x="373.81094"
       y="188.47169">develop</text>
    <rect
       x="461.21698"
       y="167.97169"
       width="73"
       height="31"
       id="rect3826"
       style="fill:#f8cbad;stroke:#000000;stroke-width:2.66667008;stroke-miterlimit:8" />
    <text
       font-weight="400"
       font-size="19"
       id="text3828"
       style="font-weight:400;font-size:19px;font-family:Calibri, sans-serif"
       x="469.965"
       y="188.47169">release</text>
    <path
       d="m 438.21698,435.4717 c 0,-8.56 6.94,-15.5 15.5,-15.5 8.56,0 15.5,6.94 15.5,15.5 0,8.56 -6.94,15.5 -15.5,15.5 -8.56,0 -15.5,-6.94 -15.5,-15.5 z"
       id="path3830"
       style="fill:#c5e0b4;fill-rule:evenodd;stroke:#000000;stroke-width:2.66667008;stroke-miterlimit:8" />
    <path
       d="m 508.21698,435.4717 c 0,-8.56 6.94,-15.5 15.5,-15.5 8.56,0 15.5,6.94 15.5,15.5 0,8.56 -6.94,15.5 -15.5,15.5 -8.56,0 -15.5,-6.94 -15.5,-15.5 z"
       id="path3832"
       style="fill:#c5e0b4;fill-rule:evenodd;stroke:#000000;stroke-width:2.66667008;stroke-miterlimit:8" />
    <path
       d="m 399.21698,435.9717 h 39"
       id="path3834"
       style="fill:none;fill-rule:evenodd;stroke:#000000;stroke-width:2.66667008;stroke-miterlimit:8" />
    <path
       d="m 469.21698,435.9717 h 39"
       id="path3836"
       style="fill:none;fill-rule:evenodd;stroke:#000000;stroke-width:2.66667008;stroke-miterlimit:8" />
    <path
       d="m 539.21698,434.9717 c 15.5,0 31.0001,-16.75 31.0001,-33.5001 0,-16.75 15.5,-33.5 31,-33.5"
       id="path3838"
       style="fill:none;fill-rule:evenodd;stroke:#000000;stroke-width:2.66667008;stroke-miterlimit:8" />
    <path
       d="m 694.21698,301.4717 c 0,-8.56 6.94,-15.5 15.5,-15.5 8.56,0 15.5,6.94 15.5,15.5 0,8.56 -6.94,15.5 -15.5,15.5 -8.56,0 -15.5,-6.94 -15.5,-15.5 z"
       id="path3840"
       style="fill:#f8cbad;fill-rule:evenodd;stroke:#000000;stroke-width:2.66667008;stroke-miterlimit:8" />
    <path
       d="m 632.21698,367.9717 c 15.5,0 31.0001,-16.75 31.0001,-33.5001 0,-16.75 15.5,-33.5 31,-33.5"
       id="path3842"
       style="fill:none;fill-rule:evenodd;stroke:#000000;stroke-width:2.66667008;stroke-miterlimit:8" />
    <path
       d="m 694.21698,435.4717 c 0,-8.56 6.94,-15.5 15.5,-15.5 8.56,0 15.5,6.94 15.5,15.5 0,8.56 -6.94,15.5 -15.5,15.5 -8.56,0 -15.5,-6.94 -15.5,-15.5 z"
       id="path3844"
       style="fill:#c5e0b4;fill-rule:evenodd;stroke:#000000;stroke-width:2.66667008;stroke-miterlimit:8" />
    <path
       d="m 764.21698,435.4717 c 0,-8.56 6.94,-15.5 15.5,-15.5 8.56,0 15.5,6.94 15.5,15.5 0,8.56 -6.94,15.5 -15.5,15.5 -8.56,0 -15.5,-6.94 -15.5,-15.5 z"
       id="path3846"
       style="fill:#c5e0b4;fill-rule:evenodd;stroke:#000000;stroke-width:2.66667008;stroke-miterlimit:8" />
    <path
       d="m 725.21698,435.9717 h 39"
       id="path3848"
       style="fill:none;fill-rule:evenodd;stroke:#000000;stroke-width:2.66667008;stroke-miterlimit:8" />
    <path
       d="m 795.21698,434.9717 c 15.5,0 31,-16.75 31,-33.5 0,-16.75 15.5,-33.5 31,-33.5"
       id="path3850"
       style="fill:none;fill-rule:evenodd;stroke:#000000;stroke-width:2.66667008;stroke-miterlimit:8" />
    <path
       d="m 950.21698,301.4717 c 0,-8.56 6.94,-15.5 15.5,-15.5 8.56,0 15.5,6.94 15.5,15.5 0,8.56 -6.94,15.5 -15.5,15.5 -8.56,0 -15.5,-6.94 -15.5,-15.5 z"
       id="path3852"
       style="fill:#f8cbad;fill-rule:evenodd;stroke:#000000;stroke-width:2.66667008;stroke-miterlimit:8" />
    <path
       d="m 888.21698,367.9717 c 15.5001,0 31.0002,-16.7501 31.0002,-33.5002 0,-16.75 15.5,-33.5001 31.0001,-33.5001"
       id="path3854"
       style="fill:none;fill-rule:evenodd;stroke:#000000;stroke-width:2.66667008;stroke-miterlimit:8" />
    <path
       d="m 725.21698,300.9717 225,-2.1e-4"
       id="path3856"
       style="fill:none;fill-rule:evenodd;stroke:#000000;stroke-width:2.66667008;stroke-miterlimit:8" />
    <rect
       x="678.21698"
       y="215.97169"
       width="63"
       height="31"
       id="rect3858"
       style="fill:#f8cbad;stroke:#000000;stroke-width:2.66667008;stroke-miterlimit:8" />
    <text
       font-weight="400"
       font-size="19"
       id="text3860"
       style="font-weight:400;font-size:19px;font-family:Calibri, sans-serif"
       x="686.04999"
       y="236.47169">v2.3.4</text>
    <path
       d="m 710.54998,256.9717 v 16.416 h -2.666 v -16.416 z m 4.485,9.088 -5.818,9.974 -5.818,-9.974 c -0.371,-0.636 -0.156,-1.453 0.48,-1.824 0.636,-0.371 1.452,-0.156 1.823,0.48 l 4.667,8 h -2.304 l 4.667,-8 c 0.371,-0.636 1.188,-0.851 1.824,-0.48 0.636,0.371 0.851,1.188 0.479,1.824 z"
       id="path3862" />
    <rect
       x="933.21698"
       y="215.97169"
       width="64"
       height="31"
       id="rect3864"
       style="fill:#f8cbad;stroke:#000000;stroke-width:2.66667008;stroke-miterlimit:8" />
    <text
       font-weight="400"
       font-size="19"
       id="text3866"
       style="font-weight:400;font-size:19px;font-family:Calibri, sans-serif"
       x="941.60596"
       y="236.47169">v3.0.0</text>
    <path
       d="m 966.54998,256.9717 v 16.416 h -2.666 v -16.416 z m 4.485,9.088 -5.818,9.974 -5.818,-9.974 c -0.371,-0.636 -0.156,-1.453 0.48,-1.824 0.636,-0.371 1.452,-0.156 1.823,0.48 l 4.667,8 h -2.304 l 4.667,-8 c 0.371,-0.636 1.188,-0.851 1.824,-0.48 0.636,0.371 0.851,1.188 0.479,1.824 z"
       id="path3868" />
    <path
       d="m 539.21698,434.9717 61.9999,-2.1e-4"
       id="path3870"
       style="fill:none;fill-rule:evenodd;stroke:#000000;stroke-width:2.66667008;stroke-miterlimit:8" />
    <path
       d="m 601.21698,435.4717 c 0,-8.56 6.94,-15.5 15.5,-15.5 8.56,0 15.5,6.94 15.5,15.5 0,8.56 -6.94,15.5 -15.5,15.5 -8.56,0 -15.5,-6.94 -15.5,-15.5 z"
       id="path3872"
       style="fill:#c5e0b4;fill-rule:evenodd;stroke:#000000;stroke-width:2.66667008;stroke-miterlimit:8" />
    <path
       d="m 632.21698,434.9717 h 62"
       id="path3874"
       style="fill:none;fill-rule:evenodd;stroke:#000000;stroke-width:2.66667008;stroke-miterlimit:8" />
    <path
       d="m 857.21698,435.4717 c 0,-8.56 6.94,-15.5 15.5,-15.5 8.56,0 15.5,6.94 15.5,15.5 0,8.56 -6.94,15.5 -15.5,15.5 -8.56,0 -15.5,-6.94 -15.5,-15.5 z"
       id="path3876"
       style="fill:#c5e0b4;fill-rule:evenodd;stroke:#000000;stroke-width:2.66667008;stroke-miterlimit:8" />
    <path
       d="m 950.21698,435.4717 c 0,-8.56 6.94,-15.5 15.5,-15.5 8.56,0 15.5,6.94 15.5,15.5 0,8.56 -6.94,15.5 -15.5,15.5 -8.56,0 -15.5,-6.94 -15.5,-15.5 z"
       id="path3878"
       style="fill:#c5e0b4;fill-rule:evenodd;stroke:#000000;stroke-width:2.66667008;stroke-miterlimit:8" />
    <path
       d="m 795.21698,435.9717 h 62"
       id="path3880"
       style="fill:none;fill-rule:evenodd;stroke:#000000;stroke-width:2.66667008;stroke-miterlimit:8" />
    <path
       d="m 888.21698,435.9717 h 61.556"
       id="path3882"
       style="fill:none;fill-rule:evenodd;stroke:#000000;stroke-width:2.66667008;stroke-miterlimit:8" />
    <rect
       x="554.21698"
       y="167.97169"
       width="73"
       height="31"
       id="rect3884"
       style="fill:#d9d9d9;stroke:#000000;stroke-width:2.66667008;stroke-miterlimit:8" />
    <text
       font-weight="400"
       font-size="19"
       id="text3886"
       style="font-weight:400;font-size:19px;font-family:Calibri, sans-serif"
       x="562.86896"
       y="188.47169">feature</text>
    <path
       d="m 368.21698,502.4717 c 0,-8.56 6.94,-15.5 15.5,-15.5 8.56,0 15.5,6.94 15.5,15.5 0,8.56 -6.94,15.5 -15.5,15.5 -8.56,0 -15.5,-6.94 -15.5,-15.5 z"
       id="path3888"
       style="fill:#d9d9d9;fill-rule:evenodd;stroke:#000000;stroke-width:2.66667008;stroke-miterlimit:8" />
    <path
       d="m 383.21698,451.9717 v 35.5"
       id="path3890"
       style="fill:none;fill-rule:evenodd;stroke:#000000;stroke-width:2.66667008;stroke-miterlimit:8" />
    <path
       d="m 469.21698,502.4717 c 0,-8.56 6.94,-15.5 15.5,-15.5 8.56,0 15.5,6.94 15.5,15.5 0,8.56 -6.94,15.5 -15.5,15.5 -8.56,0 -15.5,-6.94 -15.5,-15.5 z"
       id="path3892"
       style="fill:#d9d9d9;fill-rule:evenodd;stroke:#000000;stroke-width:2.66667008;stroke-miterlimit:8" />
    <path
       d="m 399.21698,501.9717 h 70"
       id="path3894"
       style="fill:none;fill-rule:evenodd;stroke:#000000;stroke-width:2.66667008;stroke-miterlimit:8" />
    <path
       d="m 601.21698,502.4717 c 0,-8.56 6.94,-15.5 15.5,-15.5 8.56,0 15.5,6.94 15.5,15.5 0,8.56 -6.94,15.5 -15.5,15.5 -8.56,0 -15.5,-6.94 -15.5,-15.5 z"
       id="path3896"
       style="fill:#d9d9d9;fill-rule:evenodd;stroke:#000000;stroke-width:2.66667008;stroke-miterlimit:8" />
    <path
       d="m 500.21698,501.9717 h 100.667"
       id="path3898"
       style="fill:none;fill-rule:evenodd;stroke:#000000;stroke-width:2.66667008;stroke-miterlimit:8" />
    <path
       d="m 632.21698,502.9717 c 15.5834,0 31.1667,-16.7499 31.1667,-33.4999 0,-16.7499 15.5834,-33.4999 31.1667,-33.4999"
       id="path3900"
       style="fill:none;fill-rule:evenodd;stroke:#000000;stroke-width:2.66667008;stroke-miterlimit:8" />
    <path
       d="m 846.21698,500.6387 h 50.36 v 2.666 h -50.36 z m 43.032,-4.485 9.974,5.818 -9.974,5.819 c -0.636,0.371 -1.453,0.156 -1.824,-0.48 -0.371,-0.636 -0.156,-1.453 0.48,-1.824 l 8,-4.667 v 2.304 l -8,-4.667 c -0.636,-0.371 -0.851,-1.187 -0.48,-1.823 0.371,-0.636 1.188,-0.851 1.824,-0.48 z"
       id="path3902" />
    <text
       font-weight="400"
       font-size="24"
       id="text3904"
       style="font-weight:400;font-size:24px;font-family:Calibri, sans-serif"
       x="906.31696"
       y="508.47171">time</text>
    <path
       d="m 950.21698,368.4717 c 0,-8.56 6.94,-15.5 15.5,-15.5 8.56,0 15.5,6.94 15.5,15.5 0,8.56 -6.94,15.5 -15.5,15.5 -8.56,0 -15.5,-6.94 -15.5,-15.5 z"
       id="path3906"
       style="fill:#b4c7e7;fill-rule:evenodd;stroke:#000000;stroke-width:2.66667008;stroke-miterlimit:8" />
    <path
       d="m 888.21698,367.9717 61.5554,-2.1e-4"
       id="path3908"
       style="fill:none;fill-rule:evenodd;stroke:#000000;stroke-width:2.66667008;stroke-miterlimit:8" />
  </g>
</svg>
