<?xml version="1.0" encoding="UTF-8" standalone="no"?>
<svg
   xmlns:dc="http://purl.org/dc/elements/1.1/"
   xmlns:cc="http://creativecommons.org/ns#"
   xmlns:rdf="http://www.w3.org/1999/02/22-rdf-syntax-ns#"
   xmlns:svg="http://www.w3.org/2000/svg"
   xmlns="http://www.w3.org/2000/svg"
   width="900"
   height="350"
   overflow="hidden"
   version="1.1"
   id="svg117"
   style="overflow:hidden">
  <metadata
     id="metadata121">
    <rdf:RDF>
      <cc:Work
         rdf:about="">
        <dc:format>image/svg+xml</dc:format>
        <dc:type
           rdf:resource="http://purl.org/dc/dcmitype/StillImage" />
        <dc:title></dc:title>
      </cc:Work>
    </rdf:RDF>
  </metadata>
  <defs
     id="defs5">
    <clipPath
       id="clip0">
      <rect
         x="0"
         y="0"
         width="1280"
         height="720"
         id="rect2" />
    </clipPath>
  </defs>
  <g
     clip-path="url(#clip0)"
     id="g115"
     transform="translate(0,-370)">
    <path
       d="m 146.62389,542.65238 c 0,-8.56 6.94,-15.5 15.5,-15.5 8.56,0 15.5,6.94 15.5,15.5 0,8.56 -6.94,15.5 -15.5,15.5 -8.56,0 -15.5,-6.94 -15.5,-15.5 z"
       id="path9"
       style="fill:#b4c7e7;fill-rule:evenodd;stroke:#000000;stroke-width:2.66667008;stroke-miterlimit:8" />
    <path
       d="m 472.62389,542.65238 c 0,-8.56 6.94,-15.5 15.5,-15.5 8.56,0 15.5,6.94 15.5,15.5 0,8.56 -6.94,15.5 -15.5,15.5 -8.56,0 -15.5,-6.94 -15.5,-15.5 z"
       id="path11"
       style="fill:#b4c7e7;fill-rule:evenodd;stroke:#000000;stroke-width:2.66667008;stroke-miterlimit:8" />
    <path
       d="m 728.62389,542.65238 c 0,-8.56 6.94,-15.5 15.5,-15.5 8.56,0 15.5,6.94 15.5,15.5 0,8.56 -6.94,15.5 -15.5,15.5 -8.56,0 -15.5,-6.94 -15.5,-15.5 z"
       id="path13"
       style="fill:#b4c7e7;fill-rule:evenodd;stroke:#000000;stroke-width:2.66667008;stroke-miterlimit:8" />
    <path
       d="m 177.62389,542.15238 295,-1.1e-4"
       id="path15"
       style="fill:none;fill-rule:evenodd;stroke:#000000;stroke-width:2.66667008;stroke-miterlimit:8" />
    <path
       d="m 503.62389,542.15238 225,-1.1e-4"
       id="path17"
       style="fill:none;fill-rule:evenodd;stroke:#000000;stroke-width:2.66667008;stroke-miterlimit:8" />
    <rect
       x="27.623892"
       y="527.1524"
       width="74"
       height="31"
       id="rect19"
       style="fill:#b4c7e7;stroke:#000000;stroke-width:2.66667008;stroke-miterlimit:8" />
    <text
       font-weight="400"
       font-size="19"
       id="text21"
       style="font-weight:400;font-size:19px;font-family:Calibri, sans-serif"
       x="45.206894"
       y="547.65234">main</text>
    <path
       d="m 239.62389,609.65238 c 0,-8.56 6.94,-15.5 15.5,-15.5 8.56,0 15.5,6.94 15.5,15.5 0,8.56 -6.94,15.5 -15.5,15.5 -8.56,0 -15.5,-6.94 -15.5,-15.5 z"
       id="path23"
       style="fill:#c5e0b4;fill-rule:evenodd;stroke:#000000;stroke-width:2.66667008;stroke-miterlimit:8" />
    <path
       d="m 177.62389,543.15238 c 15.5,0 31,16.75 31,33.5 0,16.75 15.5,33.5 31,33.5"
       id="path25"
       style="fill:none;fill-rule:evenodd;stroke:#000000;stroke-width:2.66667008;stroke-miterlimit:8" />
    <rect
       x="28.623892"
       y="594.15234"
       width="73"
       height="31"
       id="rect27"
       style="fill:#c5e0b4;stroke:#000000;stroke-width:2.66667008;stroke-miterlimit:8" />
    <text
       font-weight="400"
       font-size="19"
       id="text29"
       style="font-weight:400;font-size:19px;font-family:Calibri, sans-serif"
       x="34.510891"
       y="614.65234">develop</text>
    <rect
       x="27.623892"
       y="460.15237"
       width="74"
       height="31"
       id="rect31"
       style="fill:#f8cbad;stroke:#000000;stroke-width:2.66667008;stroke-miterlimit:8" />
    <text
       font-weight="400"
       font-size="19"
       id="text33"
       style="font-weight:400;font-size:19px;font-family:Calibri, sans-serif"
       x="36.746891"
       y="480.65237">release</text>
    <path
       d="m 309.62389,609.65238 c 0,-8.56 6.94,-15.5 15.5,-15.5 8.56,0 15.5,6.94 15.5,15.5 0,8.56 -6.94,15.5 -15.5,15.5 -8.56,0 -15.5,-6.94 -15.5,-15.5 z"
       id="path35"
       style="fill:#c5e0b4;fill-rule:evenodd;stroke:#000000;stroke-width:2.66667008;stroke-miterlimit:8" />
    <path
       d="m 379.62389,609.65238 c 0,-8.56 6.94,-15.5 15.5,-15.5 8.56,0 15.5,6.94 15.5,15.5 0,8.56 -6.94,15.5 -15.5,15.5 -8.56,0 -15.5,-6.94 -15.5,-15.5 z"
       id="path37"
       style="fill:#c5e0b4;fill-rule:evenodd;stroke:#000000;stroke-width:2.66667008;stroke-miterlimit:8" />
    <path
       d="m 270.62389,610.15238 h 39"
       id="path39"
       style="fill:none;fill-rule:evenodd;stroke:#000000;stroke-width:2.66667008;stroke-miterlimit:8" />
    <path
       d="m 340.62389,610.15238 h 39"
       id="path41"
       style="fill:none;fill-rule:evenodd;stroke:#000000;stroke-width:2.66667008;stroke-miterlimit:8" />
    <path
       d="m 410.62389,609.15238 c 15.5,0 31.0001,-16.75 31.0001,-33.5001 0,-16.75 15.5,-33.5 31,-33.5"
       id="path43"
       style="fill:none;fill-rule:evenodd;stroke:#000000;stroke-width:2.66667008;stroke-miterlimit:8" />
    <path
       d="m 565.62389,475.65238 c 0,-8.56 6.94,-15.5 15.5,-15.5 8.56,0 15.5,6.94 15.5,15.5 0,8.56 -6.94,15.5 -15.5,15.5 -8.56,0 -15.5,-6.94 -15.5,-15.5 z"
       id="path45"
       style="fill:#f8cbad;fill-rule:evenodd;stroke:#000000;stroke-width:2.66667008;stroke-miterlimit:8" />
    <path
       d="m 503.62389,542.15238 c 15.5,0 31.0001,-16.75 31.0001,-33.5001 0,-16.75 15.5,-33.5 31,-33.5"
       id="path47"
       style="fill:none;fill-rule:evenodd;stroke:#000000;stroke-width:2.66667008;stroke-miterlimit:8" />
    <path
       d="m 565.62389,609.65238 c 0,-8.56 6.94,-15.5 15.5,-15.5 8.56,0 15.5,6.94 15.5,15.5 0,8.56 -6.94,15.5 -15.5,15.5 -8.56,0 -15.5,-6.94 -15.5,-15.5 z"
       id="path49"
       style="fill:#c5e0b4;fill-rule:evenodd;stroke:#000000;stroke-width:2.66667008;stroke-miterlimit:8" />
    <path
       d="m 635.62389,609.65238 c 0,-8.56 6.94,-15.5 15.5,-15.5 8.56,0 15.5,6.94 15.5,15.5 0,8.56 -6.94,15.5 -15.5,15.5 -8.56,0 -15.5,-6.94 -15.5,-15.5 z"
       id="path51"
       style="fill:#c5e0b4;fill-rule:evenodd;stroke:#000000;stroke-width:2.66667008;stroke-miterlimit:8" />
    <path
       d="m 596.62389,610.15238 h 39"
       id="path53"
       style="fill:none;fill-rule:evenodd;stroke:#000000;stroke-width:2.66667008;stroke-miterlimit:8" />
    <path
       d="m 666.62389,609.15238 c 15.5,0 31,-16.75 31,-33.5 0,-16.75 15.5,-33.5 31,-33.5"
       id="path55"
       style="fill:none;fill-rule:evenodd;stroke:#000000;stroke-width:2.66667008;stroke-miterlimit:8" />
    <path
       d="m 821.62389,475.65238 c 0,-8.56 6.94,-15.5 15.5,-15.5 8.56,0 15.5,6.94 15.5,15.5 0,8.56 -6.94,15.5 -15.5,15.5 -8.56,0 -15.5,-6.94 -15.5,-15.5 z"
       id="path57"
       style="fill:#f8cbad;fill-rule:evenodd;stroke:#000000;stroke-width:2.66667008;stroke-miterlimit:8" />
    <path
       d="m 759.62389,542.15238 c 15.5001,0 31.0002,-16.7501 31.0002,-33.5002 0,-16.75 15.5,-33.5001 31.0001,-33.5001"
       id="path59"
       style="fill:none;fill-rule:evenodd;stroke:#000000;stroke-width:2.66667008;stroke-miterlimit:8" />
    <path
       d="m 596.62389,475.15238 225,-2.1e-4"
       id="path61"
       style="fill:none;fill-rule:evenodd;stroke:#000000;stroke-width:2.66667008;stroke-miterlimit:8" />
    <rect
       x="549.62384"
       y="390.15237"
       width="63"
       height="31"
       id="rect63"
       style="fill:#f8cbad;stroke:#000000;stroke-width:2.66667008;stroke-miterlimit:8" />
    <text
       font-weight="400"
       font-size="19"
       id="text65"
       style="font-weight:400;font-size:19px;font-family:Calibri, sans-serif"
       x="557.45685"
       y="410.65237">v2.3.3</text>
    <path
       d="m 581.95689,431.15238 v 16.416 h -2.666 v -16.416 z m 4.485,9.088 -5.818,9.974 -5.818,-9.974 c -0.371,-0.636 -0.156,-1.453 0.48,-1.824 0.636,-0.371 1.452,-0.156 1.823,0.48 l 4.667,8 h -2.304 l 4.667,-8 c 0.371,-0.636 1.188,-0.851 1.824,-0.48 0.636,0.371 0.851,1.188 0.479,1.824 z"
       id="path67" />
    <rect
       x="804.62384"
       y="390.15237"
       width="64"
       height="31"
       id="rect69"
       style="fill:#f8cbad;stroke:#000000;stroke-width:2.66667008;stroke-miterlimit:8" />
    <text
       font-weight="400"
       font-size="19"
       id="text71"
       style="font-weight:400;font-size:19px;font-family:Calibri, sans-serif"
       x="813.01288"
       y="410.65237">v3.0.0</text>
    <path
       d="m 837.95689,431.15238 v 16.416 h -2.666 v -16.416 z m 4.485,9.088 -5.818,9.974 -5.818,-9.974 c -0.371,-0.636 -0.156,-1.453 0.48,-1.824 0.636,-0.371 1.452,-0.156 1.823,0.48 l 4.667,8 h -2.304 l 4.667,-8 c 0.371,-0.636 1.188,-0.851 1.824,-0.48 0.636,0.371 0.851,1.188 0.479,1.824 z"
       id="path73" />
    <path
       d="m 410.62389,609.15238 61.9999,-2.1e-4"
       id="path75"
       style="fill:none;fill-rule:evenodd;stroke:#000000;stroke-width:2.66667008;stroke-miterlimit:8" />
    <path
       d="m 472.62389,609.65238 c 0,-8.56 6.94,-15.5 15.5,-15.5 8.56,0 15.5,6.94 15.5,15.5 0,8.56 -6.94,15.5 -15.5,15.5 -8.56,0 -15.5,-6.94 -15.5,-15.5 z"
       id="path77"
       style="fill:#c5e0b4;fill-rule:evenodd;stroke:#000000;stroke-width:2.66667008;stroke-miterlimit:8" />
    <path
       d="m 503.62389,609.15238 h 62"
       id="path79"
       style="fill:none;fill-rule:evenodd;stroke:#000000;stroke-width:2.66667008;stroke-miterlimit:8" />
    <path
       d="m 728.62389,609.65238 c 0,-8.56 6.94,-15.5 15.5,-15.5 8.56,0 15.5,6.94 15.5,15.5 0,8.56 -6.94,15.5 -15.5,15.5 -8.56,0 -15.5,-6.94 -15.5,-15.5 z"
       id="path81"
       style="fill:#c5e0b4;fill-rule:evenodd;stroke:#000000;stroke-width:2.66667008;stroke-miterlimit:8" />
    <path
       d="m 821.62389,609.65238 c 0,-8.56 6.94,-15.5 15.5,-15.5 8.56,0 15.5,6.94 15.5,15.5 0,8.56 -6.94,15.5 -15.5,15.5 -8.56,0 -15.5,-6.94 -15.5,-15.5 z"
       id="path83"
       style="fill:#c5e0b4;fill-rule:evenodd;stroke:#000000;stroke-width:2.66667008;stroke-miterlimit:8" />
    <path
       d="m 666.62389,610.15238 h 62"
       id="path85"
       style="fill:none;fill-rule:evenodd;stroke:#000000;stroke-width:2.66667008;stroke-miterlimit:8" />
    <path
       d="m 759.62389,610.15238 h 61.556"
       id="path87"
       style="fill:none;fill-rule:evenodd;stroke:#000000;stroke-width:2.66667008;stroke-miterlimit:8" />
    <rect
       x="27.623892"
       y="660.15234"
       width="74"
       height="31"
       id="rect89"
       style="fill:#d9d9d9;stroke:#000000;stroke-width:2.66667008;stroke-miterlimit:8" />
    <text
       font-weight="400"
       font-size="19"
       id="text91"
       style="font-weight:400;font-size:19px;font-family:Calibri, sans-serif"
       x="36.483891"
       y="680.65234">feature</text>
    <path
       d="m 239.62389,676.65238 c 0,-8.56 6.94,-15.5 15.5,-15.5 8.56,0 15.5,6.94 15.5,15.5 0,8.56 -6.94,15.5 -15.5,15.5 -8.56,0 -15.5,-6.94 -15.5,-15.5 z"
       id="path93"
       style="fill:#d9d9d9;fill-rule:evenodd;stroke:#000000;stroke-width:2.66667008;stroke-miterlimit:8" />
    <path
       d="m 254.62389,626.15238 v 35.5"
       id="path95"
       style="fill:none;fill-rule:evenodd;stroke:#000000;stroke-width:2.66667008;stroke-miterlimit:8" />
    <path
       d="m 340.62389,676.65238 c 0,-8.56 6.94,-15.5 15.5,-15.5 8.56,0 15.5,6.94 15.5,15.5 0,8.56 -6.94,15.5 -15.5,15.5 -8.56,0 -15.5,-6.94 -15.5,-15.5 z"
       id="path97"
       style="fill:#d9d9d9;fill-rule:evenodd;stroke:#000000;stroke-width:2.66667008;stroke-miterlimit:8" />
    <path
       d="m 270.62389,676.15238 h 70"
       id="path99"
       style="fill:none;fill-rule:evenodd;stroke:#000000;stroke-width:2.66667008;stroke-miterlimit:8" />
    <path
       d="m 472.62389,676.65238 c 0,-8.56 6.94,-15.5 15.5,-15.5 8.56,0 15.5,6.94 15.5,15.5 0,8.56 -6.94,15.5 -15.5,15.5 -8.56,0 -15.5,-6.94 -15.5,-15.5 z"
       id="path101"
       style="fill:#d9d9d9;fill-rule:evenodd;stroke:#000000;stroke-width:2.66667008;stroke-miterlimit:8" />
    <path
       d="m 371.62389,676.15238 h 100.667"
       id="path103"
       style="fill:none;fill-rule:evenodd;stroke:#000000;stroke-width:2.66667008;stroke-miterlimit:8" />
    <path
       d="m 503.62389,677.15238 c 15.5834,0 31.1667,-16.7499 31.1667,-33.4999 0,-16.7499 15.5834,-33.4999 31.1667,-33.4999"
       id="path105"
       style="fill:none;fill-rule:evenodd;stroke:#000000;stroke-width:2.66667008;stroke-miterlimit:8" />
    <path
       d="m 717.62389,674.81938 h 50.36 v 2.666 h -50.36 z m 43.032,-4.485 9.974,5.818 -9.974,5.819 c -0.636,0.371 -1.453,0.156 -1.824,-0.48 -0.371,-0.636 -0.156,-1.453 0.48,-1.824 l 8,-4.667 v 2.304 l -8,-4.667 c -0.636,-0.371 -0.851,-1.187 -0.48,-1.823 0.371,-0.636 1.188,-0.851 1.824,-0.48 z"
       id="path107" />
    <text
       font-weight="400"
       font-size="24"
       id="text109"
       style="font-weight:400;font-size:24px;font-family:Calibri, sans-serif"
       x="777.72388"
       y="682.65234">time</text>
    <path
       d="m 821.62389,542.65238 c 0,-8.56 6.94,-15.5 15.5,-15.5 8.56,0 15.5,6.94 15.5,15.5 0,8.56 -6.94,15.5 -15.5,15.5 -8.56,0 -15.5,-6.94 -15.5,-15.5 z"
       id="path111"
       style="fill:#b4c7e7;fill-rule:evenodd;stroke:#000000;stroke-width:2.66667008;stroke-miterlimit:8" />
    <path
       d="m 759.62389,542.15238 61.5554,-2.1e-4"
       id="path113"
       style="fill:none;fill-rule:evenodd;stroke:#000000;stroke-width:2.66667008;stroke-miterlimit:8" />
  </g>
</svg>
